<svg id="f123673a-d806-4335-a42e-f9c3485e5262" data-name="레이어 1" xmlns="http://www.w3.org/2000/svg" viewBox="0 0 100 100"><defs><style>.e0f5bfad-16b1-4d69-abcd-70aa70e1c0d1{fill:#887e72;}.ae66ed07-9c7c-4fc9-abad-c6c1b8156385{fill:#f9be00;}</style></defs><circle class="e0f5bfad-16b1-4d69-abcd-70aa70e1c0d1" cx="50" cy="50" r="50"/><path class="ae66ed07-9c7c-4fc9-abad-c6c1b8156385" d="M36.73,53.88A89.87,89.87,0,0,0,37.9,68.63a.13.13,0,0,0,0,.08c.68,1,1.38,4.92,1.94,6.16A.44.44,0,0,0,40,75a5,5,0,0,0,2.57.68.12.12,0,0,0,.11-.1,16,16,0,0,0,0-3.84c-.3-4.59-.64-11.89-.58-16.32,3.59,2,17.06,11.66,24.09,13.66a.47.47,0,0,0,.44-.1,2.39,2.39,0,0,1,1-.63A1.4,1.4,0,0,0,68,67.13c4.45-.16,10.63-1.87,13.86-5.94,2.23-2.8,2.2-6.69.81-8a4.46,4.46,0,0,1-.59-.37c-2.12-2.11-5-2.68-8.09-2.5A15.92,15.92,0,0,0,66.36,53s0,0,0,0c-.17-3,1-6.81,0-9.27a.21.21,0,0,0-.22-.13,7.44,7.44,0,0,0-3.15,1,.35.35,0,0,0-.15.31c0,.7-.22,4.35-.57,4.7-.07.06,0,.13-.07.28a54.19,54.19,0,0,0,0,11.26,2,2,0,0,0,.95.73A7.26,7.26,0,0,0,66,61.32a2,2,0,0,1,.46-.08c.13,0,.17-.15.16-.3a6,6,0,0,1,0-1c.69-2.78,3.53-6.4,7.11-6.95a5.05,5.05,0,0,1,4.83,1.57c.27.3.6,2.54-.7,5a9.87,9.87,0,0,1-5.37,4.26,20.48,20.48,0,0,1-8.16,1.13c-2.72-1.64-7.28-5.44-11.28-6.95a12.88,12.88,0,0,1-2.27-1.64c-1.94-1.57-6.1-4.27-8.56-5.93a.08.08,0,0,1,0-.07,1.32,1.32,0,0,1,0-.52c0-.12.11-.16.19-.22.87-.57,4.52-2.57,4.83-3a2.5,2.5,0,0,1,.41-.28C53.2,42.91,62.83,38.4,67,34.05a.39.39,0,0,0,.06-.26,2,2,0,0,1,.08-.52,2.76,2.76,0,0,0,0-1.63c0-.08-.11-.17-.17-.17-2.24-.23-5.23,1.14-8,3.74a9.46,9.46,0,0,1-2.21,1.48c-3.15,1.79-10.6,6.41-14.16,8.7a.05.05,0,0,1-.09,0,120.66,120.66,0,0,1,1.91-14.74.47.47,0,0,0-.06-.33c-.29-.44-.46-1-.57-1.07a.07.07,0,0,0,0,0,2.06,2.06,0,0,0-1.53-.09c-.44.1-1,.46-1.7.63a.25.25,0,0,0-.19.15,59.63,59.63,0,0,0-3.56,17.06s0,.06,0,0a83.3,83.3,0,0,0-8.67-4.81l-.13,0a6.35,6.35,0,0,1-2.12-1c-.78-.47-2.32-1.56-3.28-2.11a.42.42,0,0,0-.32-.08,6,6,0,0,0-2.81,1.89c-.14.22.15.69.11,1a.12.12,0,0,0,0,.09,28.18,28.18,0,0,0,5.74,3.88c2.9,1.56,5.84,3,7.06,3.82a.19.19,0,0,1,.08.07,2.22,2.22,0,0,0,.65.5,6,6,0,0,1,.87.53c.07.07,0,.15,0,.21-3.06,2.13-9.15,6.08-12,8a25.94,25.94,0,0,1-2.4,1.16,3.07,3.07,0,0,0-1.66,1.35c-.06.1,0,.16.09.18.47.14.58.46.9.59a1,1,0,0,0,.37,0A10.9,10.9,0,0,0,22.8,61c2.17-1,8.93-5.11,9.75-5.59a.11.11,0,0,1,.06,0,2,2,0,0,0,1.11-.57,12,12,0,0,1,1.92-1.14l1.11-.61Z"/></svg>